<svg xmlns="http://www.w3.org/2000/svg" width="48" height="48" fill="none"><path fill="#393939" d="M0 0h48v48H0z"/><path stroke="#F6F6F6" stroke-linecap="round" stroke-linejoin="round" stroke-width="2" d="M33.667 24A9.666 9.666 0 0 1 24 33.667 9.667 9.667 0 0 1 14.333 24 9.667 9.667 0 0 1 24 14.334c5.339 0 9.667 4.327 9.667 9.666z"/><path stroke="#F6F6F6" stroke-linecap="round" stroke-linejoin="round" stroke-width="2" d="M20.333 15.334v5a4 4 0 0 1-4 4h-1.666m6.666 8.332s1-2 1-4.666c0-2.867 3.205-1.296 4.103-5.676.295-1.443 1.424-2.658 2.897-2.658H32"/></svg>