<svg xmlns="http://www.w3.org/2000/svg" width="48" height="48" fill="none"><path fill="#393939" d="M0 0h48v48H0z"/><path fill="#F6F6F6" d="m26.667 33.666-.781.625a1 1 0 0 0 .78.376v-1zm-5.334 0v1a1 1 0 0 0 .781-.375l-.78-.624zm-3-9h11.334v-2H18.333v2zm14.334 3v2h2v-2h-2zm-3 5h-3v2h3v-2zm-2.22.376-.584-.73-1.562 1.249.585.73 1.562-1.25zm-6.31-.73-.585.73 1.562 1.25.584-.731-1.561-1.25zm.196.355h-3v2h3v-2zm-6-3v-2h-2v2h2zm11.53 2.644a3.667 3.667 0 0 0-5.726 0l1.561 1.25a1.667 1.667 0 0 1 2.603 0l1.562-1.25zm5.804-2.645a3 3 0 0 1-3 3v2a5 5 0 0 0 5-5h-2zm-14.334 3a3 3 0 0 1-3-3h-2a5 5 0 0 0 5 5v-2zm11.334-8a3 3 0 0 1 3 3h2a5 5 0 0 0-5-5v2zm-11.334-2a5 5 0 0 0-5 5h2a3 3 0 0 1 3-3v-2z"/><path fill="#F6F6F6" d="M33.667 24.334h1a.987.987 0 0 0-.01-.133l-.99.133zm-19.334 0-.99-.133a.987.987 0 0 0-.01.133h1zm-1 3a1 1 0 1 0 2 0h-2zm19.334 0a1 1 0 0 0 2 0h-2zm1.99-3.133-1.024-7.685-1.982.264 1.024 7.686 1.983-.265zM30 13.334H18v2h12v-2zm-15.632 3.182L13.342 24.2l1.982.265 1.025-7.686-1.982-.264zm-1.034 7.818v3h2v-3h-2zm19.334 0v3h2v-3h-2zM18 13.334a3.667 3.667 0 0 0-3.634 3.182l1.982.264A1.667 1.667 0 0 1 18 15.333v-2zm15.632 3.182a3.666 3.666 0 0 0-3.634-3.182v2c.835 0 1.541.618 1.652 1.446l1.982-.264z"/></svg>