<svg xmlns="http://www.w3.org/2000/svg" width="48" height="48" fill="none"><path fill="#393939" d="M0 0h48v48H0z"/><path stroke="#F6F6F6" stroke-linecap="round" stroke-linejoin="round" stroke-width="2" d="m14.333 23 7.334-7.333m-6 18h.666c.737 0 1.334-.597 1.334-1.333V29c0-.736-.597-1.333-1.334-1.333h-.666c-.737 0-1.334.597-1.334 1.333v3.334c0 .736.597 1.333 1.334 1.333zm8 0h.666c.737 0 1.334-.597 1.334-1.333V25c0-.736-.597-1.333-1.334-1.333h-.666c-.737 0-1.334.597-1.334 1.333v7.334c0 .736.597 1.333 1.334 1.333zm8 0h.666c.737 0 1.334-.597 1.334-1.334V15.668c0-.737-.597-1.334-1.334-1.334h-.666c-.737 0-1.334.597-1.334 1.334v16.666c0 .737.597 1.334 1.334 1.334zM23 19v-4.667h-4.667"/></svg>